<svg width="24" height="24" viewBox="0 0 24 24" fill="none" xmlns="http://www.w3.org/2000/svg">
<g clip-path="url(#clip0_2229_1043)">
<path d="M12.0008 10.23C11.3408 10.23 10.8008 10.77 10.8008 11.43C10.8008 12.09 11.3408 12.63 12.0008 12.63C12.6608 12.63 13.2008 12.09 13.2008 11.43C13.2008 10.77 12.6608 10.23 12.0008 10.23Z" fill="white"/>
<path d="M15.8992 10.23C15.2392 10.23 14.6992 10.77 14.6992 11.43C14.6992 12.09 15.2392 12.63 15.8992 12.63C16.5592 12.63 17.0992 12.09 17.0992 11.43C17.0992 10.77 16.5592 10.23 15.8992 10.23Z" fill="white"/>
<path d="M8.10039 13.1299C7.44039 13.1299 6.90039 13.6699 6.90039 14.3299C6.90039 14.9899 7.44039 15.5299 8.10039 15.5299C8.76039 15.5299 9.30039 14.9899 9.30039 14.3299C9.30039 13.6699 8.76039 13.1299 8.10039 13.1299Z" fill="white"/>
<path d="M15.8992 13.1299C15.2392 13.1299 14.6992 13.6699 14.6992 14.3299C14.6992 14.9899 15.2392 15.5299 15.8992 15.5299C16.5592 15.5299 17.0992 14.9899 17.0992 14.3299C17.0992 13.6699 16.5592 13.1299 15.8992 13.1299Z" fill="white"/>
<path d="M8.10039 16.03C7.44039 16.03 6.90039 16.57 6.90039 17.23C6.90039 17.89 7.44039 18.43 8.10039 18.43C8.76039 18.43 9.30039 17.89 9.30039 17.23C9.30039 16.57 8.76039 16.03 8.10039 16.03Z" fill="white"/>
<path d="M12.0008 13.1299C11.3408 13.1299 10.8008 13.6699 10.8008 14.3299C10.8008 14.9899 11.3408 15.5299 12.0008 15.5299C12.6608 15.5299 13.2008 14.9899 13.2008 14.3299C13.2008 13.6699 12.6608 13.1299 12.0008 13.1299Z" fill="white"/>
<path d="M12.0008 16.03C11.3408 16.03 10.8008 16.57 10.8008 17.23C10.8008 17.89 11.3408 18.43 12.0008 18.43C12.6608 18.43 13.2008 17.89 13.2008 17.23C13.2008 16.57 12.6608 16.03 12.0008 16.03Z" fill="white"/>
<path d="M17.6002 5.55H17.4402C17.2402 4.04 16.4802 3 15.4802 3C14.4802 3 13.7202 4.04 13.5202 5.55H11.1202C10.7602 5.55 10.4402 5.3 10.3502 4.95C10.0502 3.77 9.37023 3 8.51023 3C7.51023 3 6.75023 4.04 6.55023 5.55H6.39023C5.06023 5.55 3.99023 6.62 3.99023 7.95V17.8C3.99023 19.57 5.42023 21 7.19023 21H16.7902C18.5602 21 19.9902 19.57 19.9902 17.8V7.95C19.9902 6.62 18.9202 5.55 17.5902 5.55H17.6002ZM15.4902 4.66C15.6002 4.8 15.7402 5.11 15.8202 5.55H15.1502C15.2402 5.11 15.3802 4.8 15.4802 4.66H15.4902ZM8.52024 4.66C8.63024 4.8 8.77023 5.11 8.85023 5.55H8.18023C8.27023 5.11 8.41023 4.8 8.51023 4.66H8.52024ZM18.4102 17.8C18.4102 18.68 17.6902 19.4 16.8102 19.4H7.20023C6.32023 19.4 5.60023 18.68 5.60023 17.8V7.95C5.60023 7.51 5.96023 7.15 6.40023 7.15H6.56023C6.67023 7.97 6.95023 8.68 7.35023 9.13C7.51023 9.31 7.73023 9.4 7.95023 9.4C8.14023 9.4 8.33023 9.33 8.48023 9.2C8.81023 8.91 8.84023 8.4 8.55023 8.07C8.41023 7.92 8.28023 7.58 8.19023 7.15H12.8802C13.2402 7.15 13.5602 7.39 13.6502 7.74C13.7902 8.31 14.0202 8.79 14.3302 9.13C14.4902 9.31 14.7102 9.4 14.9302 9.4C15.1202 9.4 15.3102 9.33 15.4602 9.2C15.7902 8.91 15.8202 8.4 15.5302 8.07C15.3902 7.92 15.2602 7.58 15.1702 7.15H17.6202C18.0602 7.15 18.4202 7.51 18.4202 7.95V17.8H18.4102Z" fill="white"/>
</g>
<defs>
<clipPath id="clip0_2229_1043">
<rect width="24" height="24" fill="white"/>
</clipPath>
</defs>
</svg>
