<svg width="25" height="24" viewBox="0 0 25 24" fill="none" xmlns="http://www.w3.org/2000/svg">
<g clip-path="url(#clip0_2111_4802)">
<path d="M14.7593 3.85005C14.9193 3.85005 15.0893 3.80005 15.2293 3.70005L15.5693 3.45005C15.9293 3.19005 15.9993 2.69005 15.7393 2.33005C15.4793 1.98005 14.9793 1.89005 14.6193 2.16005L14.2793 2.41005C13.9193 2.67005 13.8493 3.17005 14.1093 3.53005C14.2693 3.74005 14.5093 3.86005 14.7593 3.86005V3.85005Z" fill="#55A605"/>
<path d="M11.5385 3.84993C11.7785 3.84993 12.0185 3.73993 12.1785 3.52993L12.3685 3.27993C12.6385 2.92993 12.5685 2.42993 12.2085 2.15993C11.8585 1.88993 11.3485 1.95993 11.0885 2.31993L10.8985 2.56993C10.6285 2.91993 10.6985 3.41993 11.0585 3.68993C11.1985 3.79993 11.3685 3.84993 11.5385 3.84993Z" fill="#55A605"/>
<path d="M13.7192 6.93002C13.8092 6.93002 13.8992 6.92002 13.9792 6.89002L14.3292 6.77002C14.7492 6.62002 14.9692 6.17002 14.8192 5.75002C14.6692 5.33002 14.2192 5.11002 13.7992 5.26002L13.4492 5.38002C13.0292 5.53002 12.8092 5.98002 12.9592 6.40002C13.0792 6.73002 13.3792 6.94002 13.7092 6.94002L13.7192 6.93002Z" fill="#55A605"/>
<path d="M19.1892 20.55C19.9092 19.88 20.0292 18.77 19.4592 17.96L17.6792 15.42C17.0992 14.6 16.0092 14.33 15.1292 14.79C14.9992 14.86 14.8692 14.94 14.7492 15.02C14.4692 15.22 14.2192 15.45 14.0092 15.71C13.8992 15.85 13.6892 15.95 13.4992 15.85C12.5892 15.35 11.8192 14.66 11.2192 13.8C10.6192 12.94 10.2292 11.98 10.0692 10.95C10.0392 10.74 10.1992 10.58 10.3792 10.52C10.6992 10.41 10.9992 10.26 11.2792 10.06C11.3992 9.96999 11.5192 9.87999 11.6292 9.77999C12.3692 9.10999 12.4892 7.98999 11.9092 7.16999L10.1292 4.62999C9.55918 3.80999 8.45918 3.53999 7.57918 3.99999C7.44918 4.06999 7.31918 4.14999 7.19918 4.22999C6.61918 4.63999 6.18918 5.18999 5.92918 5.83999C5.90918 5.87999 5.88918 5.91999 5.86918 5.96999C4.58918 9.50999 5.11918 13.46 7.26918 16.55C9.00918 19.03 11.5992 20.71 14.5792 21.28C15.0092 21.36 15.4292 21.08 15.5192 20.64C15.5992 20.21 15.3192 19.79 14.8792 19.7C12.3192 19.21 10.0792 17.76 8.57918 15.62C6.74918 13 6.27918 9.64999 7.32918 6.62999C7.34918 6.58999 7.36918 6.53999 7.38918 6.49999C7.51918 6.10999 7.76918 5.77999 8.10918 5.53999C8.17918 5.48999 8.24918 5.44999 8.31918 5.40999C8.48918 5.31999 8.69918 5.36999 8.80918 5.53999L10.5892 8.07999C10.6992 8.23999 10.6792 8.45999 10.5392 8.58999C10.4792 8.63999 10.4092 8.69999 10.3492 8.73999C10.1992 8.84999 10.0292 8.92999 9.85918 8.98999C8.91918 9.30999 8.33918 10.23 8.47918 11.18C8.67918 12.46 9.14918 13.64 9.89918 14.7C10.6392 15.76 11.5892 16.61 12.7192 17.24C13.5592 17.7 14.6292 17.48 15.2492 16.7C15.3592 16.56 15.4992 16.43 15.6492 16.32C15.7192 16.27 15.7892 16.23 15.8592 16.19C16.0292 16.1 16.2392 16.16 16.3492 16.32L18.1292 18.86C18.2392 19.02 18.2192 19.24 18.0892 19.36C18.0292 19.41 17.9692 19.47 17.8992 19.51C17.8392 19.55 17.7692 19.6 17.6992 19.63C17.4992 19.74 17.3492 19.93 17.2892 20.15C17.2392 20.37 17.2892 20.61 17.4092 20.8L17.9892 21.64C18.1492 21.86 18.3892 21.98 18.6492 21.98C18.8092 21.98 18.9692 21.93 19.1092 21.84C19.4692 21.59 19.5592 21.09 19.3092 20.73L19.1792 20.54L19.1892 20.55Z" fill="#55A605"/>
</g>
<defs>
<clipPath id="clip0_2111_4802">
<rect width="24" height="24" fill="white" transform="translate(0.5)"/>
</clipPath>
</defs>
</svg>
