<svg width="24" height="24" viewBox="0 0 24 24" fill="none" xmlns="http://www.w3.org/2000/svg">
<g clip-path="url(#clip0_2040_3129)">
<path d="M10.5392 15.1701C10.1692 15.1701 9.79924 15.0401 9.50924 14.7701L7.45924 12.8901C7.12924 12.5901 7.10924 12.0901 7.40924 11.7601C7.70924 11.4301 8.20924 11.4101 8.53924 11.7101L10.5892 13.5901L15.4592 9.0401C15.7792 8.7401 16.2892 8.7601 16.5892 9.0901C16.8892 9.4201 16.8692 9.9201 16.5392 10.2201L11.5792 14.7701C11.2892 15.0401 10.9192 15.1701 10.5492 15.1701H10.5392Z" fill="#55A605"/>
<path d="M16.2 21H7.8C5.15 21 3 18.85 3 16.2V7.8C3 5.15 5.15 3 7.8 3H16.2C18.85 3 21 5.15 21 7.8V16.2C21 18.85 18.85 21 16.2 21ZM7.8 4.6C6.04 4.6 4.6 6.04 4.6 7.8V16.2C4.6 17.96 6.04 19.4 7.8 19.4H16.2C17.96 19.4 19.4 17.96 19.4 16.2V7.8C19.4 6.04 17.96 4.6 16.2 4.6H7.8Z" fill="#55A605"/>
</g>
<defs>
<clipPath id="clip0_2040_3129">
<rect width="24" height="24" fill="white"/>
</clipPath>
</defs>
</svg>
