<svg width="24" height="24" viewBox="0 0 24 24" fill="none" xmlns="http://www.w3.org/2000/svg">
<g clip-path="url(#clip0_2040_3135)">
<path d="M16.2 21H7.8C5.15 21 3 18.85 3 16.2V7.8C3 5.15 5.15 3 7.8 3H16.2C18.85 3 21 5.15 21 7.8V16.2C21 18.85 18.85 21 16.2 21ZM7.8 4.6C6.04 4.6 4.6 6.04 4.6 7.8V16.2C4.6 17.96 6.04 19.4 7.8 19.4H16.2C17.96 19.4 19.4 17.96 19.4 16.2V7.8C19.4 6.04 17.96 4.6 16.2 4.6H7.8Z" fill="#A6A6A6"/>
</g>
<defs>
<clipPath id="clip0_2040_3135">
<rect width="24" height="24" fill="white"/>
</clipPath>
</defs>
</svg>
