<svg width="25" height="24" viewBox="0 0 25 24" fill="none" xmlns="http://www.w3.org/2000/svg">
<g clip-path="url(#clip0_2111_4805)">
<path d="M19.7 5H5.3C3.76 5 2.5 6.26 2.5 7.8V16.2C2.5 17.74 3.76 19 5.3 19H19.7C21.24 19 22.5 17.74 22.5 16.2V7.8C22.5 6.26 21.24 5 19.7 5ZM5.3 6.6H19.7C20.2 6.6 20.63 6.91 20.81 7.35C19.87 6.94 18.79 7.06 17.98 7.7L13.24 11.41C12.8 11.75 12.2 11.75 11.76 11.41L7.02 7.7C6.2 7.06 5.13 6.94 4.19 7.35C4.37 6.91 4.8 6.6 5.3 6.6ZM20.9 16.2C20.9 16.86 20.36 17.4 19.7 17.4H5.3C4.64 17.4 4.1 16.86 4.1 16.2V9.9C4.1 9.43 4.35 9.03 4.77 8.82C5.19 8.61 5.67 8.66 6.04 8.95L10.78 12.66C11.29 13.06 11.9 13.26 12.51 13.26C13.12 13.26 13.73 13.06 14.24 12.66L18.98 8.95C19.35 8.66 19.82 8.61 20.25 8.82C20.67 9.03 20.92 9.43 20.92 9.9V16.2H20.9Z" fill="#55A605"/>
</g>
<defs>
<clipPath id="clip0_2111_4805">
<rect width="24" height="24" fill="white" transform="translate(0.5)"/>
</clipPath>
</defs>
</svg>
