<svg width="24" height="24" viewBox="0 0 24 24" fill="none" xmlns="http://www.w3.org/2000/svg">
<g clip-path="url(#clip0_2116_1477)">
<path d="M19.2 5H4.8C3.26 5 2 6.26 2 7.8V16.2C2 17.74 3.26 19 4.8 19H19.2C20.74 19 22 17.74 22 16.2V7.8C22 6.26 20.74 5 19.2 5ZM4.8 6.6H19.2C19.7 6.6 20.13 6.91 20.31 7.35C19.37 6.94 18.29 7.06 17.48 7.7L12.74 11.41C12.3 11.75 11.7 11.75 11.26 11.41L6.52 7.7C5.7 7.06 4.63 6.94 3.69 7.35C3.87 6.91 4.3 6.6 4.8 6.6ZM20.4 16.2C20.4 16.86 19.86 17.4 19.2 17.4H4.8C4.14 17.4 3.6 16.86 3.6 16.2V9.9C3.6 9.43 3.85 9.03 4.27 8.82C4.69 8.61 5.17 8.66 5.54 8.95L10.28 12.66C10.79 13.06 11.4 13.26 12.01 13.26C12.62 13.26 13.23 13.06 13.74 12.66L18.48 8.95C18.85 8.66 19.32 8.61 19.75 8.82C20.17 9.03 20.42 9.43 20.42 9.9V16.2H20.4Z" fill="#A6A6A6"/>
</g>
<defs>
<clipPath id="clip0_2116_1477">
<rect width="24" height="24" fill="white"/>
</clipPath>
</defs>
</svg>
