<svg width="64" height="64" viewBox="0 0 64 64" fill="none" xmlns="http://www.w3.org/2000/svg">
<g clip-path="url(#clip0_2016_4023)">
<path d="M42.5714 22H22C19.8 22 18 23.8 18 26V38C18 40.2 19.8 42 22 42H42.5714C44.7714 42 46.5714 40.2 46.5714 38V26C46.5714 23.8 44.7714 22 42.5714 22ZM22 24.2857H42.5714C43.2857 24.2857 43.9 24.7286 44.1571 25.3571C42.8143 24.7714 41.2714 24.9429 40.1143 25.8571L33.3429 31.1571C32.7143 31.6429 31.8571 31.6429 31.2286 31.1571L24.4571 25.8571C23.2857 24.9429 21.7571 24.7714 20.4143 25.3571C20.6714 24.7286 21.2857 24.2857 22 24.2857ZM44.2857 38C44.2857 38.9429 43.5143 39.7143 42.5714 39.7143H22C21.0571 39.7143 20.2857 38.9429 20.2857 38V29C20.2857 28.3286 20.6429 27.7571 21.2429 27.4571C21.8429 27.1571 22.5286 27.2286 23.0571 27.6429L29.8286 32.9429C30.5571 33.5143 31.4286 33.8 32.3 33.8C33.1714 33.8 34.0429 33.5143 34.7714 32.9429L41.5429 27.6429C42.0714 27.2286 42.7429 27.1571 43.3571 27.4571C43.9571 27.7571 44.3143 28.3286 44.3143 29V38H44.2857Z" fill="#55A605"/>
<path d="M32.0007 5.3335C17.3073 5.3335 5.33398 17.3068 5.33398 32.0002C5.33398 46.6935 17.3073 58.6668 32.0007 58.6668C46.694 58.6668 58.6673 46.6935 58.6673 32.0002C58.6673 17.3068 46.694 5.3335 32.0007 5.3335ZM32.0007 54.4002C19.654 54.4002 9.60065 44.3468 9.60065 32.0002C9.60065 19.6535 19.654 9.60016 32.0007 9.60016C44.3473 9.60016 54.4007 19.6535 54.4007 32.0002C54.4007 44.3468 44.3473 54.4002 32.0007 54.4002Z" fill="#DEF2B3"/>
</g>
<defs>
<clipPath id="clip0_2016_4023">
<rect width="64" height="64" fill="white"/>
</clipPath>
</defs>
</svg>
