<svg width="24" height="24" viewBox="0 0 24 24" fill="none" xmlns="http://www.w3.org/2000/svg">
<g clip-path="url(#clip0_2116_981)">
<path d="M20.2005 11.2001C19.8505 11.2001 19.2605 10.6901 18.6405 10.1401C18.0705 9.64006 17.4005 9.06006 16.5805 8.55006L20.7705 4.36006C21.0805 4.05006 21.0805 3.54006 20.7705 3.23006C20.4605 2.92006 19.9505 2.92006 19.6405 3.23006L14.7305 8.14006L3.23055 19.6301C2.92055 19.9401 2.92055 20.4501 3.23055 20.7601C3.39055 20.9201 3.59055 20.9901 3.80055 20.9901C4.01055 20.9901 4.21055 20.9101 4.37055 20.7601L9.76055 15.3701C10.4805 15.5101 11.2205 15.6001 12.0005 15.6001C14.6705 15.6001 16.4305 14.8001 17.6605 14.1001C18.0405 13.8801 18.1805 13.3901 17.9605 13.0101C17.7405 12.6301 17.2505 12.4901 16.8705 12.7101C16.5405 12.9001 16.1605 13.0901 15.7305 13.2701C16.0105 12.7101 16.1805 12.0901 16.1805 11.4201C16.1805 10.9501 16.1005 10.4901 15.9505 10.0601C16.5605 10.4701 17.1005 10.9301 17.5805 11.3501C18.4705 12.1301 19.2405 12.8001 20.1905 12.8001C20.6305 12.8001 20.9905 12.4401 20.9905 12.0001C20.9905 11.5601 20.6305 11.2001 20.1905 11.2001H20.2005ZM11.2505 13.8801L14.4605 10.6701C14.5305 10.9101 14.5805 11.1601 14.5805 11.4201C14.5805 12.8401 13.4205 14.0001 12.0005 14.0001C11.7405 14.0001 11.4905 13.9601 11.2505 13.8801Z" fill="#A6A6A6"/>
<path d="M3.79977 12.8C4.22977 12.8 4.77977 13.14 5.47977 13.57C5.71977 13.72 5.97977 13.88 6.25977 14.04C6.38977 14.11 6.51977 14.15 6.65977 14.15C6.93977 14.15 7.19977 14.01 7.34977 13.75C7.56977 13.37 7.43977 12.88 7.05977 12.66C6.79977 12.51 6.54977 12.36 6.31977 12.21C6.13977 12.1 5.95977 11.99 5.78977 11.89C5.99977 11.72 6.19977 11.54 6.41977 11.35C6.90977 10.92 7.44977 10.45 8.07977 10.04C7.92977 10.46 7.83977 10.9 7.82977 11.37C7.82977 11.81 8.17977 12.17 8.61977 12.18H8.62977C9.06977 12.18 9.41977 11.83 9.42977 11.39C9.44977 9.99 10.5598 8.87 11.9698 8.85C12.1498 8.85 12.3098 8.77 12.4398 8.67C12.4698 8.65 12.4998 8.63 12.5298 8.61C12.5398 8.6 12.5498 8.58 12.5598 8.56C12.6798 8.42 12.7598 8.24 12.7598 8.05C12.7598 7.61 12.3998 7.25 11.9598 7.25C8.66977 7.27 6.75977 8.93 5.36977 10.15C4.74977 10.69 4.15977 11.2 3.80977 11.2C3.36977 11.2 3.00977 11.56 3.00977 12C3.00977 12.44 3.36977 12.8 3.80977 12.8H3.79977Z" fill="#A6A6A6"/>
</g>
<defs>
<clipPath id="clip0_2116_981">
<rect width="24" height="24" fill="white"/>
</clipPath>
</defs>
</svg>
