<svg width="48" height="48" viewBox="0 0 48 48" fill="none" xmlns="http://www.w3.org/2000/svg">
<g clip-path="url(#clip0_1917_3843)">
<path d="M40.4 23.5596C39.7 23.5596 38.52 22.5396 37.28 21.4396C34.48 18.9996 30.64 15.6396 24 15.6396C17.36 15.6396 13.52 18.9996 10.72 21.4396C9.48 22.5196 8.32 23.5396 7.6 23.5396C6.72 23.5396 6 24.2596 6 25.1396C6 26.0196 6.72 26.7396 7.6 26.7396C8.46 26.7396 9.54 27.4196 10.92 28.2796C13.68 29.9996 17.48 32.3396 23.98 32.3396C29.34 32.3396 32.84 30.7396 35.3 29.3396C36.06 28.8996 36.34 27.9196 35.9 27.1596C35.46 26.3996 34.48 26.1196 33.72 26.5596C33.06 26.9396 32.3 27.3196 31.44 27.6796C32 26.5596 32.34 25.3196 32.34 23.9796C32.34 22.9996 32.14 22.0796 31.82 21.1996C33.08 22.0396 34.16 22.9796 35.14 23.8396C36.92 25.3996 38.46 26.7396 40.36 26.7396C41.24 26.7396 41.96 26.0196 41.96 25.1396C41.96 24.2596 41.24 23.5396 40.36 23.5396L40.4 23.5596ZM11.56 24.9396C11.98 24.5996 12.38 24.2396 12.82 23.8596C13.8 22.9996 14.88 22.0596 16.14 21.2196C15.82 22.0996 15.62 23.0196 15.62 23.9996C15.62 25.3396 15.96 26.5796 16.52 27.6996C15 27.0396 13.72 26.2796 12.6 25.5796C12.24 25.3596 11.9 25.1396 11.56 24.9396ZM29.14 23.9996C29.14 26.8396 26.82 29.1596 23.98 29.1596C21.14 29.1596 18.82 26.8396 18.82 23.9996C18.82 21.1596 21.14 18.8396 23.98 18.8396C26.82 18.8396 29.14 21.1596 29.14 23.9996Z" fill="#A6A6A6"/>
</g>
<defs>
<clipPath id="clip0_1917_3843">
<rect width="48" height="48" fill="white"/>
</clipPath>
</defs>
</svg>
