<svg width="64" height="64" viewBox="0 0 64 64" fill="none" xmlns="http://www.w3.org/2000/svg">
<g clip-path="url(#clip0_2018_4671)">
<path d="M32.0007 5.3335C17.3073 5.3335 5.33398 17.3068 5.33398 32.0002C5.33398 46.6935 17.3073 58.6668 32.0007 58.6668C46.694 58.6668 58.6673 46.6935 58.6673 32.0002C58.6673 17.3068 46.694 5.3335 32.0007 5.3335ZM32.0007 54.4002C19.654 54.4002 9.60065 44.3468 9.60065 32.0002C9.60065 19.6535 19.654 9.60016 32.0007 9.60016C44.3473 9.60016 54.4007 19.6535 54.4007 32.0002C54.4007 44.3468 44.3473 54.4002 32.0007 54.4002Z" fill="#DEF2B3"/>
<g clip-path="url(#clip1_2018_4671)">
<path d="M25.1493 15.3335H35.516C37.166 15.3335 38.516 16.6835 38.516 18.3335C38.516 19.6668 39.5993 20.7335 40.916 20.7335C42.566 20.7335 43.916 22.0835 43.916 23.7335V43.5835C43.916 46.3835 41.6327 48.6502 38.8493 48.6502H25.1493C22.3493 48.6502 20.0827 46.3668 20.0827 43.5835V20.4002C20.0827 17.6002 22.366 15.3335 25.1493 15.3335ZM22.7494 43.6002C22.7494 44.9335 23.8327 46.0002 25.1493 46.0002H38.8493C40.1827 46.0002 41.2493 44.9168 41.2493 43.6002V23.7335C41.2493 23.5502 41.0993 23.4002 40.916 23.4002C38.116 23.4002 35.8493 21.1168 35.8493 18.3335C35.8493 18.1502 35.6993 18.0002 35.516 18.0002H25.1493C23.816 18.0002 22.7494 19.0835 22.7494 20.4002V43.5835V43.6002Z" fill="#55A605"/>
<path d="M33.9003 36.6499H26.7669C26.0336 36.6499 25.4336 37.2499 25.4336 37.9832C25.4336 38.7166 26.0336 39.3166 26.7669 39.3166H33.9003C34.6336 39.3166 35.2336 38.7166 35.2336 37.9832C35.2336 37.2499 34.6336 36.6499 33.9003 36.6499Z" fill="#55A605"/>
<path d="M37.2336 30.6665H26.7669C26.0336 30.6665 25.4336 31.2665 25.4336 31.9998C25.4336 32.7332 26.0336 33.3332 26.7669 33.3332H37.2336C37.9669 33.3332 38.5669 32.7332 38.5669 31.9998C38.5669 31.2665 37.9669 30.6665 37.2336 30.6665Z" fill="#55A605"/>
<path d="M26.7669 27.3498H33.9003C34.6336 27.3498 35.2336 26.7498 35.2336 26.0164C35.2336 25.2831 34.6336 24.6831 33.9003 24.6831H26.7669C26.0336 24.6831 25.4336 25.2831 25.4336 26.0164C25.4336 26.7498 26.0336 27.3498 26.7669 27.3498Z" fill="#55A605"/>
</g>
</g>
<defs>
<clipPath id="clip0_2018_4671">
<rect width="64" height="64" fill="white"/>
</clipPath>
<clipPath id="clip1_2018_4671">
<rect width="40" height="40" fill="white" transform="translate(12 12)"/>
</clipPath>
</defs>
</svg>
