<svg width="24" height="24" viewBox="0 0 24 24" fill="none" xmlns="http://www.w3.org/2000/svg">
<g clip-path="url(#clip0_2229_83)">
<path d="M7.89039 2H14.1104C15.1004 2 15.9104 2.81 15.9104 3.8C15.9104 4.6 16.5604 5.24 17.3504 5.24C18.3404 5.24 19.1504 6.05 19.1504 7.04V18.95C19.1504 20.63 17.7804 21.99 16.1104 21.99H7.89039C6.21039 21.99 4.85039 20.62 4.85039 18.95V5.04C4.85039 3.36 6.22039 2 7.89039 2ZM6.45039 18.96C6.45039 19.76 7.10039 20.4 7.89039 20.4H16.1104C16.9104 20.4 17.5504 19.75 17.5504 18.96V7.04C17.5504 6.93 17.4604 6.84 17.3504 6.84C15.6704 6.84 14.3104 5.47 14.3104 3.8C14.3104 3.69 14.2204 3.6 14.1104 3.6H7.89039C7.09039 3.6 6.45039 4.25 6.45039 5.04V18.95V18.96Z" fill="#262626"/>
<path d="M13.1405 14.79H8.86055C8.42055 14.79 8.06055 15.15 8.06055 15.59C8.06055 16.03 8.42055 16.39 8.86055 16.39H13.1405C13.5805 16.39 13.9405 16.03 13.9405 15.59C13.9405 15.15 13.5805 14.79 13.1405 14.79Z" fill="#0D0D0D"/>
<path d="M15.1405 11.2H8.86055C8.42055 11.2 8.06055 11.56 8.06055 12C8.06055 12.44 8.42055 12.8 8.86055 12.8H15.1405C15.5805 12.8 15.9405 12.44 15.9405 12C15.9405 11.56 15.5805 11.2 15.1405 11.2Z" fill="#0D0D0D"/>
<path d="M8.86055 9.21011H13.1405C13.5805 9.21011 13.9405 8.85011 13.9405 8.41011C13.9405 7.97011 13.5805 7.61011 13.1405 7.61011H8.86055C8.42055 7.61011 8.06055 7.97011 8.06055 8.41011C8.06055 8.85011 8.42055 9.21011 8.86055 9.21011Z" fill="#0D0D0D"/>
</g>
<defs>
<clipPath id="clip0_2229_83">
<rect width="24" height="24" fill="white"/>
</clipPath>
</defs>
</svg>
