<svg width="24" height="24" viewBox="0 0 24 24" fill="none" xmlns="http://www.w3.org/2000/svg">
<g clip-path="url(#clip0_2116_976)">
<path d="M17.2 7.4H15.8V6.8C15.8 4.7 14.1 3 12 3C9.9 3 8.2 4.7 8.2 6.8V7.4H6.8C5.26 7.4 4 8.66 4 10.2V18.2C4 19.74 5.26 21 6.8 21H17.2C18.74 21 20 19.74 20 18.2V10.2C20 8.66 18.74 7.4 17.2 7.4ZM9.8 6.8C9.8 5.59 10.79 4.6 12 4.6C13.21 4.6 14.2 5.59 14.2 6.8V7.4H9.8V6.8ZM18.4 18.2C18.4 18.86 17.86 19.4 17.2 19.4H6.8C6.14 19.4 5.6 18.86 5.6 18.2V10.2C5.6 9.54 6.14 9 6.8 9H17.2C17.86 9 18.4 9.54 18.4 10.2V18.2Z" fill="#A6A6A6"/>
<path d="M11.9992 11.3999C11.0092 11.3999 10.1992 12.2099 10.1992 13.1999C10.1992 13.8999 10.6092 14.5099 11.1992 14.7999V16.1999C11.1992 16.6399 11.5592 16.9999 11.9992 16.9999C12.4392 16.9999 12.7992 16.6399 12.7992 16.1999V14.7999C13.3892 14.4999 13.7992 13.8999 13.7992 13.1999C13.7992 12.2099 12.9892 11.3999 11.9992 11.3999Z" fill="#A6A6A6"/>
</g>
<defs>
<clipPath id="clip0_2116_976">
<rect width="24" height="24" fill="white"/>
</clipPath>
</defs>
</svg>
