<svg width="24" height="24" viewBox="0 0 24 24" fill="none" xmlns="http://www.w3.org/2000/svg">
<g clip-path="url(#clip0_2111_4798)">
<path d="M11.9995 2C8.10945 2 4.93945 5.17 4.93945 9.06C4.93945 9.84 5.07945 10.66 5.36945 11.48C6.24945 14.02 11.1295 21.34 11.3395 21.65C11.4895 21.87 11.7395 22.01 12.0095 22.01C12.2795 22.01 12.5295 21.88 12.6795 21.65C12.8895 21.34 17.7695 14.02 18.6495 11.48C18.9295 10.66 19.0795 9.84 19.0795 9.06C19.0795 5.17 15.9095 2 12.0195 2H11.9995ZM17.1195 10.96C16.5995 12.47 14.3795 16.07 12.8395 18.46C12.4495 19.07 11.5595 19.07 11.1595 18.46C9.62945 16.07 7.39945 12.47 6.87945 10.96C6.59945 10.14 6.48945 9.39 6.55945 8.64C6.76945 6.13 8.72945 4.01 11.2195 3.66C14.5695 3.19 17.4595 5.8 17.4595 9.06C17.4595 9.67 17.3495 10.3 17.1195 10.96Z" fill="#55A605"/>
<path d="M11.9995 5.23999C9.89945 5.23999 8.18945 6.94999 8.18945 9.04999C8.18945 11.15 9.89945 12.86 11.9995 12.86C14.0995 12.86 15.8095 11.15 15.8095 9.04999C15.8095 6.94999 14.0995 5.23999 11.9995 5.23999ZM11.9995 11.27C10.8095 11.27 9.84945 10.33 9.79945 9.14999C10.0995 9.60999 10.6095 9.91999 11.1995 9.91999C12.1195 9.91999 12.8695 9.16999 12.8695 8.24999C12.8695 7.65999 12.5595 7.14999 12.0995 6.84999C13.2795 6.89999 14.2195 7.86999 14.2195 9.04999C14.2195 10.23 13.2295 11.26 12.0095 11.26L11.9995 11.27Z" fill="#55A605"/>
</g>
<defs>
<clipPath id="clip0_2111_4798">
<rect width="24" height="24" fill="white"/>
</clipPath>
</defs>
</svg>
