<svg width="64" height="64" viewBox="0 0 64 64" fill="none" xmlns="http://www.w3.org/2000/svg">
<g clip-path="url(#clip0_2012_3532)">
<path d="M41.2273 24.1068L28.2406 36.2401L22.7739 31.2268C21.8939 30.4268 20.5606 30.4801 19.7606 31.3601C18.9606 32.2401 19.0139 33.5734 19.8939 34.3734L25.3606 39.3868C26.1339 40.1068 27.1206 40.4534 28.1073 40.4534C29.0939 40.4534 30.0806 40.1068 30.8539 39.3868L44.0806 27.2534C44.9606 26.4534 45.0139 25.1201 44.2139 24.2401C43.4139 23.3601 42.0539 23.3068 41.2006 24.1068H41.2273Z" fill="#55A605"/>
<path d="M32.0007 5.3335C17.3073 5.3335 5.33398 17.3068 5.33398 32.0002C5.33398 46.6935 17.3073 58.6668 32.0007 58.6668C46.694 58.6668 58.6673 46.6935 58.6673 32.0002C58.6673 17.3068 46.694 5.3335 32.0007 5.3335ZM32.0007 54.4002C19.654 54.4002 9.60065 44.3468 9.60065 32.0002C9.60065 19.6535 19.654 9.60016 32.0007 9.60016C44.3473 9.60016 54.4007 19.6535 54.4007 32.0002C54.4007 44.3468 44.3473 54.4002 32.0007 54.4002Z" fill="#DEF2B3"/>
</g>
<defs>
<clipPath id="clip0_2012_3532">
<rect width="64" height="64" fill="white"/>
</clipPath>
</defs>
</svg>
