<svg width="24" height="24" viewBox="0 0 24 24" fill="none" xmlns="http://www.w3.org/2000/svg">
<g clip-path="url(#clip0_2253_3992)">
<path d="M15.7657 8.19869C15.4705 7.9175 15.0233 7.93624 14.7549 8.24555L12 11.3949L9.24507 8.24555C8.97673 7.93624 8.52056 7.9175 8.23433 8.19869C7.93916 8.47988 7.92127 8.94853 8.18961 9.25785L11.025 12.5009L8.18961 15.744C7.92127 16.0533 7.93916 16.522 8.23433 16.8032C8.3685 16.9344 8.54739 17 8.71734 17C8.91412 17 9.10195 16.9156 9.24507 16.7563L12 13.607L14.7549 16.7563C14.898 16.9156 15.0859 17 15.2827 17C15.4526 17 15.6315 16.9344 15.7657 16.8032C16.0608 16.522 16.0787 16.0533 15.8104 15.744L12.975 12.5009L15.8104 9.25785C16.0787 8.94853 16.0608 8.47988 15.7657 8.19869Z" fill="#0D0D0D"/>
<path d="M16.2 21H7.8C5.15 21 3 18.85 3 16.2V7.8C3 5.15 5.15 3 7.8 3H16.2C18.85 3 21 5.15 21 7.8V16.2C21 18.85 18.85 21 16.2 21ZM7.8 4.6C6.04 4.6 4.6 6.04 4.6 7.8V16.2C4.6 17.96 6.04 19.4 7.8 19.4H16.2C17.96 19.4 19.4 17.96 19.4 16.2V7.8C19.4 6.04 17.96 4.6 16.2 4.6H7.8Z" fill="#0D0D0D"/>
</g>
<defs>
<clipPath id="clip0_2253_3992">
<rect width="24" height="24" fill="white"/>
</clipPath>
</defs>
</svg>
