<svg width="48" height="48" viewBox="0 0 48 48" fill="none" xmlns="http://www.w3.org/2000/svg">
<g clip-path="url(#clip0_1917_3681)">
<path d="M26.1604 24.0004L35.2604 14.0804C35.8604 13.4204 35.8204 12.4204 35.1604 11.8204C34.5004 11.2204 33.5004 11.2604 32.9004 11.9204L24.0004 21.6404L15.1004 11.9204C14.5004 11.2604 13.4804 11.2204 12.8404 11.8204C12.1804 12.4204 12.1404 13.4204 12.7404 14.0804L21.8404 24.0004L12.7404 33.9204C12.1404 34.5804 12.1804 35.5804 12.8404 36.1804C13.1404 36.4604 13.5404 36.6004 13.9204 36.6004C14.3604 36.6004 14.7804 36.4204 15.1004 36.0804L24.0004 26.3604L32.9004 36.0804C33.2204 36.4204 33.6404 36.6004 34.0804 36.6004C34.4604 36.6004 34.8604 36.4604 35.1604 36.1804C35.8204 35.5804 35.8604 34.5804 35.2604 33.9204L26.1604 24.0004Z" fill="#C23613"/>
</g>
<defs>
<clipPath id="clip0_1917_3681">
<rect width="48" height="48" fill="white"/>
</clipPath>
</defs>
</svg>
