<svg width="64" height="64" viewBox="0 0 64 64" fill="none" xmlns="http://www.w3.org/2000/svg">
<g clip-path="url(#clip0_2018_4783)">
<path d="M32.0007 5.3335C17.3073 5.3335 5.33398 17.3068 5.33398 32.0002C5.33398 38.0535 7.30732 43.7602 11.0407 48.4802C11.7607 49.4135 13.1207 49.5735 14.0273 48.8268C14.9607 48.1068 15.1207 46.7468 14.374 45.8402C11.2273 41.8668 9.57398 37.0668 9.57398 32.0002C9.60065 19.6535 19.654 9.60016 32.0007 9.60016C44.3473 9.60016 54.4007 19.6535 54.4007 32.0002C54.4007 44.3468 44.3473 54.4002 32.0007 54.4002C27.5207 54.4002 23.174 53.0668 19.4673 50.5868C18.4807 49.9202 17.174 50.1868 16.5073 51.1468C15.8407 52.1068 16.1073 53.4402 17.0673 54.1068C21.494 57.0935 26.6407 58.6668 31.974 58.6668C46.6673 58.6668 58.6407 46.6935 58.6407 32.0002C58.6407 17.3068 46.694 5.3335 32.0007 5.3335Z" fill="#DEF2B3"/>
<path d="M41.9739 16.3732C40.9872 15.7332 39.6539 16.0265 39.0139 17.0132L30.1872 30.8532C29.9739 31.1999 29.8672 31.5999 29.8672 31.9999V42.6665C29.8672 43.8399 30.8272 44.7999 32.0005 44.7999C33.1739 44.7999 34.1339 43.8399 34.1339 42.6665V32.6132L42.6405 19.3065C43.2805 18.3199 42.9872 16.9865 42.0005 16.3465L41.9739 16.3732Z" fill="#55A605"/>
</g>
<defs>
<clipPath id="clip0_2018_4783">
<rect width="64" height="64" fill="white"/>
</clipPath>
</defs>
</svg>
