<svg width="24" height="24" viewBox="0 0 24 24" fill="none" xmlns="http://www.w3.org/2000/svg">
<g clip-path="url(#clip0_2040_3132)">
<path d="M12 2C6.49 2 2 6.49 2 12C2 14.27 2.74 16.41 4.14 18.18C4.41 18.53 4.92 18.59 5.26 18.31C5.61 18.04 5.67 17.53 5.39 17.19C4.21 15.7 3.59 13.9 3.59 12C3.6 7.37 7.37 3.6 12 3.6C16.63 3.6 20.4 7.37 20.4 12C20.4 16.63 16.63 20.4 12 20.4C10.32 20.4 8.69 19.9 7.3 18.97C6.93 18.72 6.44 18.82 6.19 19.18C5.94 19.54 6.04 20.04 6.4 20.29C8.06 21.41 9.99 22 11.99 22C17.5 22 21.99 17.51 21.99 12C21.99 6.49 17.51 2 12 2Z" fill="#0D0D0D"/>
<path d="M15.7392 6.14001C15.3692 5.90001 14.8692 6.01001 14.6292 6.38001L11.3192 11.57C11.2392 11.7 11.1992 11.85 11.1992 12V16C11.1992 16.44 11.5592 16.8 11.9992 16.8C12.4392 16.8 12.7992 16.44 12.7992 16V12.23L15.9892 7.24001C16.2292 6.87001 16.1192 6.37001 15.7492 6.13001L15.7392 6.14001Z" fill="#0D0D0D"/>
</g>
<defs>
<clipPath id="clip0_2040_3132">
<rect width="24" height="24" fill="white"/>
</clipPath>
</defs>
</svg>
