<svg width="24" height="24" viewBox="0 0 24 24" fill="none" xmlns="http://www.w3.org/2000/svg">
<g clip-path="url(#clip0_2134_827)">
<path d="M20.2895 18.7198C19.1995 17.2898 17.7595 16.1598 16.1195 15.4498C15.8295 15.3298 15.7295 15.0698 15.6995 14.9398C15.6395 14.6798 15.6995 14.3998 15.8795 14.1898C16.9595 12.8898 17.6095 11.1798 17.6095 9.60977C17.6095 6.51977 15.0995 4.00977 12.0095 4.00977C8.91947 4.00977 6.40946 6.51977 6.40946 9.60977C6.40946 11.1798 7.05946 12.8898 8.13946 14.1898C8.30946 14.3998 8.37946 14.6798 8.31946 14.9398C8.28946 15.0798 8.18946 15.3298 7.89946 15.4498C6.25946 16.1598 4.80946 17.2898 3.71946 18.7198C3.44946 19.0698 3.51946 19.5698 3.86946 19.8398C4.01946 19.9498 4.18946 19.9998 4.34946 19.9998C4.58946 19.9998 4.82946 19.8898 4.98946 19.6798C5.90946 18.4698 7.12946 17.5098 8.52946 16.9098C9.20946 16.6198 9.69946 16.0298 9.86946 15.2998C10.0495 14.5498 9.86946 13.7498 9.36946 13.1498C8.52946 12.1398 8.00946 10.7798 8.00946 9.58977C8.00946 7.37977 9.79947 5.58977 12.0095 5.58977C14.2195 5.58977 16.0095 7.37977 16.0095 9.58977C16.0095 10.7798 15.4895 12.1398 14.6495 13.1498C13.8695 14.0798 12.9395 14.5898 12.0095 14.5898C11.5695 14.5898 11.2095 14.9498 11.2095 15.3898C11.2095 15.8298 11.5695 16.1898 12.0095 16.1898C12.7795 16.1898 13.5395 15.9698 14.2395 15.5598C14.4595 16.1598 14.8895 16.6498 15.4895 16.8998C16.8795 17.4998 18.0995 18.4598 19.0295 19.6698C19.1895 19.8798 19.4295 19.9898 19.6695 19.9898C19.8395 19.9898 20.0095 19.9398 20.1495 19.8298C20.4995 19.5598 20.5695 19.0598 20.2995 18.7098L20.2895 18.7198Z" fill="#A6A6A6"/>
</g>
<defs>
<clipPath id="clip0_2134_827">
<rect width="24" height="24" fill="white"/>
</clipPath>
</defs>
</svg>
