<svg width="24" height="24" viewBox="0 0 24 24" fill="none" xmlns="http://www.w3.org/2000/svg">
<g clip-path="url(#clip0_2229_246)">
<path d="M20.2895 18.72C19.1995 17.29 17.7595 16.16 16.1195 15.45C15.8295 15.33 15.7295 15.07 15.6995 14.94C15.6395 14.68 15.6995 14.4 15.8795 14.19C16.9595 12.89 17.6095 11.18 17.6095 9.61001C17.6095 6.52001 15.0995 4.01001 12.0095 4.01001C8.91947 4.01001 6.40946 6.52001 6.40946 9.61001C6.40946 11.18 7.05946 12.89 8.13946 14.19C8.30946 14.4 8.37946 14.68 8.31946 14.94C8.28946 15.08 8.18946 15.33 7.89946 15.45C6.25946 16.16 4.80946 17.29 3.71946 18.72C3.44946 19.07 3.51946 19.57 3.86946 19.84C4.01946 19.95 4.18946 20 4.34946 20C4.58946 20 4.82946 19.89 4.98946 19.68C5.90946 18.47 7.12946 17.51 8.52946 16.91C9.20946 16.62 9.69946 16.03 9.86946 15.3C10.0495 14.55 9.86946 13.75 9.36946 13.15C8.52946 12.14 8.00946 10.78 8.00946 9.59001C8.00946 7.38001 9.79947 5.59001 12.0095 5.59001C14.2195 5.59001 16.0095 7.38001 16.0095 9.59001C16.0095 10.78 15.4895 12.14 14.6495 13.15C13.8695 14.08 12.9395 14.59 12.0095 14.59C11.5695 14.59 11.2095 14.95 11.2095 15.39C11.2095 15.83 11.5695 16.19 12.0095 16.19C12.7795 16.19 13.5395 15.97 14.2395 15.56C14.4595 16.16 14.8895 16.65 15.4895 16.9C16.8795 17.5 18.0995 18.46 19.0295 19.67C19.1895 19.88 19.4295 19.99 19.6695 19.99C19.8395 19.99 20.0095 19.94 20.1495 19.83C20.4995 19.56 20.5695 19.06 20.2995 18.71L20.2895 18.72Z" fill="white"/>
</g>
<defs>
<clipPath id="clip0_2229_246">
<rect width="24" height="24" fill="white"/>
</clipPath>
</defs>
</svg>
